<?xml version="1.0" encoding="UTF-8" standalone="no"?>
<!-- Created with Inkscape (http://www.inkscape.org/) -->

<svg
   xmlns:dc="http://purl.org/dc/elements/1.1/"
   xmlns:cc="http://creativecommons.org/ns#"
   xmlns:rdf="http://www.w3.org/1999/02/22-rdf-syntax-ns#"
   xmlns:svg="http://www.w3.org/2000/svg"
   xmlns="http://www.w3.org/2000/svg"
   xmlns:sodipodi="http://sodipodi.sourceforge.net/DTD/sodipodi-0.dtd"
   xmlns:inkscape="http://www.inkscape.org/namespaces/inkscape"
   width="280.31223"
   height="276.77161"
   id="svg2"
   version="1.1"
   inkscape:version="0.48.4 r9939"
   sodipodi:docname="percpective.svg">
  <defs
     id="defs4">
    <marker
       inkscape:stockid="Arrow1Send"
       orient="auto"
       refY="0"
       refX="0"
       id="Arrow1Send"
       style="overflow:visible">
      <path
         id="path3818"
         d="M 0,0 5,-5 -12.5,0 5,5 0,0 z"
         style="fill-rule:evenodd;stroke:#000000;stroke-width:1pt"
         transform="matrix(-0.2,0,0,-0.2,-1.2,0)"
         inkscape:connector-curvature="0" />
    </marker>
    <marker
       inkscape:stockid="Arrow2Lend"
       orient="auto"
       refY="0"
       refX="0"
       id="Arrow2Lend"
       style="overflow:visible">
      <path
         id="path3824"
         style="fill-rule:evenodd;stroke-width:0.625;stroke-linejoin:round"
         d="M 8.7185878,4.0337352 -2.2072895,0.01601326 8.7185884,-4.0017078 c -1.7454984,2.3720609 -1.7354408,5.6174519 -6e-7,8.035443 z"
         transform="matrix(-1.1,0,0,-1.1,-1.1,0)"
         inkscape:connector-curvature="0" />
    </marker>
    <marker
       inkscape:stockid="Arrow1Send"
       orient="auto"
       refY="0"
       refX="0"
       id="Arrow1Send-7"
       style="overflow:visible">
      <path
         inkscape:connector-curvature="0"
         id="path3818-5"
         d="M 0,0 5,-5 -12.5,0 5,5 0,0 z"
         style="fill-rule:evenodd;stroke:#000000;stroke-width:1pt"
         transform="matrix(-0.2,0,0,-0.2,-1.2,0)" />
    </marker>
  </defs>
  <sodipodi:namedview
     id="base"
     pagecolor="#ffffff"
     bordercolor="#666666"
     borderopacity="1.0"
     inkscape:pageopacity="0.0"
     inkscape:pageshadow="2"
     inkscape:zoom="0.98994949"
     inkscape:cx="-169.7283"
     inkscape:cy="93.188407"
     inkscape:document-units="px"
     inkscape:current-layer="layer1"
     showgrid="false"
     inkscape:window-width="1920"
     inkscape:window-height="1052"
     inkscape:window-x="0"
     inkscape:window-y="0"
     inkscape:window-maximized="1"
     fit-margin-top="0"
     fit-margin-left="0"
     fit-margin-right="0"
     fit-margin-bottom="0" />
  <metadata
     id="metadata7">
    <rdf:RDF>
      <cc:Work
         rdf:about="">
        <dc:format>image/svg+xml</dc:format>
        <dc:type
           rdf:resource="http://purl.org/dc/dcmitype/StillImage" />
        <dc:title></dc:title>
      </cc:Work>
    </rdf:RDF>
  </metadata>
  <g
     inkscape:label="Calque 1"
     inkscape:groupmode="layer"
     id="layer1"
     transform="translate(-263.64982,-224.54727)">
    <rect
       style="fill:#ffffff;fill-opacity:1;fill-rule:nonzero;stroke:#000000;stroke-width:0.88321894;stroke-linejoin:round;stroke-miterlimit:4;stroke-opacity:1;stroke-dasharray:none;stroke-dashoffset:0"
       id="rect2987"
       width="278.91888"
       height="275.8884"
       x="264.60156"
       y="224.98888" />
    <path
       sodipodi:type="arc"
       style="fill:#ffffff;fill-opacity:1;fill-rule:nonzero;stroke:#000000;stroke-width:0;stroke-linejoin:round;stroke-miterlimit:4;stroke-opacity:1;stroke-dasharray:none;stroke-dashoffset:0"
       id="path2989"
       sodipodi:cx="211.12189"
       sodipodi:cy="301.81885"
       sodipodi:rx="11.111678"
       sodipodi:ry="11.111678"
       d="m 222.23357,301.81885 c 0,6.13681 -4.97487,11.11168 -11.11168,11.11168 -6.13681,0 -11.11168,-4.97487 -11.11168,-11.11168 0,-6.13681 4.97487,-11.11168 11.11168,-11.11168 6.13681,0 11.11168,4.97487 11.11168,11.11168 z"
       transform="translate(63.63961,77.781746)" />
    <path
       sodipodi:type="arc"
       style="fill:#0000ff;fill-opacity:1;fill-rule:nonzero;stroke:none"
       id="path3759"
       sodipodi:cx="189.90868"
       sodipodi:cy="478.09045"
       sodipodi:rx="23.233509"
       sodipodi:ry="25.75889"
       d="m 213.14219,478.09045 c 0,14.22625 -10.402,25.75889 -23.23351,25.75889 -12.83152,0 -23.23351,-11.53264 -23.23351,-25.75889 0,-14.22624 10.40199,-25.75889 23.23351,-25.75889 12.83151,0 23.23351,11.53265 23.23351,25.75889 z"
       transform="matrix(0.56862746,0,0,0.56862746,244.63517,42.590385)" />
    <path
       sodipodi:type="arc"
       style="fill:#ff0000;fill-opacity:1;fill-rule:nonzero;stroke:none"
       id="path3759-3"
       sodipodi:cx="189.90868"
       sodipodi:cy="478.09045"
       sodipodi:rx="23.233509"
       sodipodi:ry="25.75889"
       d="m 213.14219,478.09045 c 0,14.22625 -10.402,25.75889 -23.23351,25.75889 -12.83152,0 -23.23351,-11.53264 -23.23351,-25.75889 0,-14.22624 10.40199,-25.75889 23.23351,-25.75889 12.83151,0 23.23351,11.53265 23.23351,25.75889 z"
       transform="matrix(0.56862746,0,0,0.56862746,336.47984,135.01934)" />
    <path
       sodipodi:type="arc"
       style="fill:#00ff00;fill-opacity:1;fill-rule:nonzero;stroke:none"
       id="path3759-3-6"
       sodipodi:cx="189.90868"
       sodipodi:cy="478.09045"
       sodipodi:rx="23.233509"
       sodipodi:ry="25.75889"
       d="m 213.14219,478.09045 c 0,14.22625 -10.402,25.75889 -23.23351,25.75889 -12.83152,0 -23.23351,-11.53264 -23.23351,-25.75889 0,-14.22624 10.40199,-25.75889 23.23351,-25.75889 12.83151,0 23.23351,11.53265 23.23351,25.75889 z"
       transform="matrix(0.56862746,0,0,0.56862746,384.96716,182.49651)" />
    <path
       style="fill:#00ff00;fill-opacity:1;stroke:#00ff00;stroke-width:8.5;stroke-linecap:butt;stroke-linejoin:miter;stroke-miterlimit:4;stroke-opacity:1;stroke-dasharray:none;marker-end:url(#Arrow1Send)"
       d="m 361.63461,324.0422 c 52.02285,52.02286 52.02285,52.02286 52.02285,52.02286"
       id="path3797"
       inkscape:connector-curvature="0" />
    <path
       style="fill:#12ff00;fill-opacity:1;stroke:#ff0000;stroke-width:8.5;stroke-linecap:butt;stroke-linejoin:miter;stroke-miterlimit:4;stroke-opacity:1;stroke-dasharray:none;marker-end:url(#Arrow1Send)"
       d="M 344.50219,303.87932 C 292.47934,251.85646 292.47934,251.85646 292.47934,251.85646"
       id="path3797-3"
       inkscape:connector-curvature="0" />
  </g>
</svg>
